<svg width="256" height="256" viewBox="0 0 256 256" fill="none" xmlns="http://www.w3.org/2000/svg">
<path d="M0 128C0 57.3076 57.3076 0 128 0C198.692 0 256 57.3076 256 128C256 198.692 198.692 256 128 256C57.3076 256 0 198.692 0 128Z" fill="#4F46E5"/>
<path d="M85.092 180.296C81.828 180.296 79.332 179.384 77.604 177.56C75.876 175.736 75.012 173.192 75.012 169.928V86.552C75.012 83.288 75.924 80.744 77.748 78.92C79.668 77.096 82.26 76.184 85.524 76.184C88.404 76.184 90.66 76.76 92.292 77.912C94.02 78.968 95.604 80.84 97.044 83.528L130.308 144.296H125.412L158.676 83.528C160.116 80.84 161.652 78.968 163.284 77.912C165.012 76.76 167.268 76.184 170.052 76.184C173.316 76.184 175.812 77.096 177.54 78.92C179.364 80.744 180.276 83.288 180.276 86.552V169.928C180.276 173.192 179.412 175.736 177.684 177.56C175.956 179.384 173.46 180.296 170.196 180.296C166.932 180.296 164.388 179.384 162.564 177.56C160.836 175.736 159.972 173.192 159.972 169.928V111.608H163.14L136.356 159.56C135.204 161.384 133.956 162.776 132.612 163.736C131.364 164.6 129.684 165.032 127.572 165.032C125.46 165.032 123.732 164.552 122.388 163.592C121.044 162.632 119.844 161.288 118.788 159.56L91.716 111.464H95.172V169.928C95.172 173.192 94.308 175.736 92.58 177.56C90.948 179.384 88.452 180.296 85.092 180.296Z" fill="#FAFAFA"/>
<path d="M77.604 177.56L79.0559 176.185L79.0559 176.185L77.604 177.56ZM77.748 78.92L76.3705 77.47L76.3519 77.4877L76.3338 77.5058L77.748 78.92ZM92.292 77.912L91.1386 79.5459L91.1927 79.5841L91.2491 79.6186L92.292 77.912ZM97.044 83.528L95.281 84.4724L95.2853 84.4804L95.2896 84.4883L97.044 83.528ZM130.308 144.296V146.296H133.683L132.062 143.336L130.308 144.296ZM125.412 144.296L123.658 143.336L122.037 146.296H125.412V144.296ZM158.676 83.528L160.43 84.4883L160.435 84.4804L160.439 84.4724L158.676 83.528ZM163.284 77.912L164.371 79.5911L164.382 79.5837L164.393 79.5761L163.284 77.912ZM177.54 78.92L176.088 80.2955L176.107 80.3151L176.126 80.3342L177.54 78.92ZM177.684 177.56L176.232 176.185L176.232 176.185L177.684 177.56ZM162.564 177.56L161.112 178.935L161.131 178.955L161.15 178.974L162.564 177.56ZM159.972 111.608V109.608H157.972V111.608H159.972ZM163.14 111.608L164.886 112.583L166.548 109.608H163.14V111.608ZM136.356 159.56L138.047 160.628L138.076 160.582L138.102 160.535L136.356 159.56ZM132.612 163.736L133.75 165.38L133.763 165.372L133.774 165.363L132.612 163.736ZM122.388 163.592L123.55 161.965L123.55 161.965L122.388 163.592ZM118.788 159.56L117.045 160.541L117.063 160.572L117.081 160.603L118.788 159.56ZM91.716 111.464V109.464H88.2952L89.9731 112.445L91.716 111.464ZM95.172 111.464H97.172V109.464H95.172V111.464ZM92.58 177.56L91.1281 176.185L91.1085 176.205L91.0895 176.226L92.58 177.56ZM85.092 178.296C82.2045 178.296 80.3019 177.5 79.0559 176.185L76.1521 178.935C78.3621 181.268 81.4515 182.296 85.092 182.296V178.296ZM79.0559 176.185C77.7754 174.833 77.012 172.839 77.012 169.928H73.012C73.012 173.545 73.9766 176.639 76.1521 178.935L79.0559 176.185ZM77.012 169.928V86.552H73.012V169.928H77.012ZM77.012 86.552C77.012 83.6704 77.8064 81.69 79.1622 80.3342L76.3338 77.5058C74.0416 79.798 73.012 82.9056 73.012 86.552H77.012ZM79.1255 80.37C80.5918 78.977 82.6472 78.184 85.524 78.184V74.184C81.8728 74.184 78.7442 75.215 76.3705 77.47L79.1255 80.37ZM85.524 78.184C88.1658 78.184 89.9632 78.7162 91.1386 79.5459L93.4454 76.2781C91.3568 74.8037 88.6422 74.184 85.524 74.184V78.184ZM91.2491 79.6186C92.5575 80.4181 93.9304 81.9512 95.281 84.4724L98.807 82.5836C97.2776 79.7288 95.4825 77.5178 93.3349 76.2054L91.2491 79.6186ZM95.2896 84.4883L128.554 145.256L132.062 143.336L98.7984 82.5677L95.2896 84.4883ZM130.308 142.296H125.412V146.296H130.308V142.296ZM127.166 145.256L160.43 84.4883L156.922 82.5677L123.658 143.336L127.166 145.256ZM160.439 84.4724C161.802 81.9289 163.14 80.3875 164.371 79.5911L162.198 76.2329C160.164 77.5484 158.43 79.751 156.913 82.5836L160.439 84.4724ZM164.393 79.5761C165.698 78.7062 167.531 78.184 170.052 78.184V74.184C167.005 74.184 164.326 74.8138 162.175 76.2479L164.393 79.5761ZM170.052 78.184C172.94 78.184 174.842 78.9802 176.088 80.2955L178.992 77.5445C176.782 75.2117 173.692 74.184 170.052 74.184V78.184ZM176.126 80.3342C177.482 81.69 178.276 83.6704 178.276 86.552H182.276C182.276 82.9056 181.246 79.798 178.954 77.5058L176.126 80.3342ZM178.276 86.552V169.928H182.276V86.552H178.276ZM178.276 169.928C178.276 172.839 177.513 174.833 176.232 176.185L179.136 178.935C181.311 176.639 182.276 173.545 182.276 169.928H178.276ZM176.232 176.185C174.986 177.5 173.084 178.296 170.196 178.296V182.296C173.836 182.296 176.926 181.268 179.136 178.935L176.232 176.185ZM170.196 178.296C167.314 178.296 165.334 177.502 163.978 176.146L161.15 178.974C163.442 181.266 166.55 182.296 170.196 182.296V178.296ZM164.016 176.185C162.735 174.833 161.972 172.839 161.972 169.928H157.972C157.972 173.545 158.937 176.639 161.112 178.935L164.016 176.185ZM161.972 169.928V111.608H157.972V169.928H161.972ZM159.972 113.608H163.14V109.608H159.972V113.608ZM161.394 110.633L134.61 158.585L138.102 160.535L164.886 112.583L161.394 110.633ZM134.665 158.492C133.611 160.161 132.529 161.337 131.45 162.109L133.774 165.363C135.383 164.215 136.797 162.607 138.047 160.628L134.665 158.492ZM131.474 162.092C130.668 162.649 129.432 163.032 127.572 163.032V167.032C129.936 167.032 132.06 166.551 133.75 165.38L131.474 162.092ZM127.572 163.032C125.76 163.032 124.471 162.622 123.55 161.965L121.226 165.219C122.993 166.482 125.16 167.032 127.572 167.032V163.032ZM123.55 161.965C122.469 161.192 121.441 160.066 120.495 158.517L117.081 160.603C118.247 162.51 119.619 164.072 121.226 165.219L123.55 161.965ZM120.531 158.579L93.4589 110.483L89.9731 112.445L117.045 160.541L120.531 158.579ZM91.716 113.464H95.172V109.464H91.716V113.464ZM93.172 111.464V169.928H97.172V111.464H93.172ZM93.172 169.928C93.172 172.839 92.4086 174.833 91.1281 176.185L94.0319 178.935C96.2074 176.639 97.172 173.545 97.172 169.928H93.172ZM91.0895 176.226C89.9627 177.486 88.1038 178.296 85.092 178.296V182.296C88.8002 182.296 91.9333 181.282 94.0705 178.894L91.0895 176.226Z" fill="#FAFAFA"/>
<path d="M0 128C0 57.3076 57.3076 0 128 0C198.692 0 256 57.3076 256 128C256 198.692 198.692 256 128 256C57.3076 256 0 198.692 0 128Z" stroke="#E0E7FF"/>
</svg>
